<svg xmlns="http://www.w3.org/2000/svg" width="1365" height="1188" viewBox="0 0 1365 1188" role="img" aria-labelledby="title desc">
  <title id="title">Sharveesh M AI systems profile dashboard</title>
  <desc id="desc">A premium neon systems dashboard for Sharveesh M featuring AI systems engineering, HELIOS, Midas Pay, Whole2, technology stack, timeline, contribution activity, and quick links.</desc>
  <defs>
    <radialGradient id="heroGlow" cx="50%" cy="0%" r="76%">
      <stop offset="0" stop-color="#ff2f72" stop-opacity="0.55"/>
      <stop offset="0.48" stop-color="#5b0b2a" stop-opacity="0.28"/>
      <stop offset="1" stop-color="#0b0710" stop-opacity="0"/>
    </radialGradient>
    <linearGradient id="panel" x1="0" y1="0" x2="1" y2="1">
      <stop offset="0" stop-color="#240713" stop-opacity="0.96"/>
      <stop offset="0.55" stop-color="#130912" stop-opacity="0.96"/>
      <stop offset="1" stop-color="#08070c" stop-opacity="0.98"/>
    </linearGradient>
    <linearGradient id="pink" x1="0" y1="0" x2="1" y2="1">
      <stop offset="0" stop-color="#ff2d6f"/>
      <stop offset="0.48" stop-color="#ff0f4f"/>
      <stop offset="1" stop-color="#ff7aa8"/>
    </linearGradient>
    <linearGradient id="glass" x1="0" y1="0" x2="0" y2="1">
      <stop offset="0" stop-color="#ffffff" stop-opacity="0.15"/>
      <stop offset="1" stop-color="#ffffff" stop-opacity="0.02"/>
    </linearGradient>
    <linearGradient id="cubeSide" x1="0" y1="0" x2="0" y2="1">
      <stop offset="0" stop-color="#ff7aa8"/>
      <stop offset="1" stop-color="#7d1138"/>
    </linearGradient>
    <filter id="glow" x="-60%" y="-60%" width="220%" height="220%">
      <feGaussianBlur stdDeviation="7" result="blur"/>
      <feColorMatrix in="blur" type="matrix" values="1 0 0 0 1  0 0 0 0 0.06  0 0 0 0 0.33  0 0 0 0.75 0"/>
      <feMerge>
        <feMergeNode/>
        <feMergeNode in="SourceGraphic"/>
      </feMerge>
    </filter>
    <filter id="softShadow" x="-30%" y="-30%" width="160%" height="160%">
      <feDropShadow dx="0" dy="22" stdDeviation="18" flood-color="#000000" flood-opacity="0.55"/>
    </filter>
    <style>
      .ui { font-family: Inter, "Segoe UI", Helvetica, Arial, system-ui, sans-serif; }
      .mono { font-family: ui-monospace, SFMono-Regular, Consolas, "Courier New", monospace; }
      .small { font-size: 12px; fill: #b8a6b0; }
      .label { font-size: 14px; fill: #fff0f6; font-weight: 800; letter-spacing: .02em; }
      .muted { fill: #b8a6b0; }
      .card { fill: url(#panel); stroke: rgba(255,45,111,.36); stroke-width: 1; }
      .chip { fill: rgba(255,45,111,.16); stroke: rgba(255,122,168,.26); }
      .line { stroke: #ff2d6f; stroke-width: 1.4; fill: none; opacity: .8; }
      .pulse { animation: pulse 2.8s ease-in-out infinite; transform-origin: center; }
      @keyframes pulse { 0%,100% { opacity:.55; } 50% { opacity:1; } }
    </style>
  </defs>

  <rect width="1365" height="1188" fill="#08070c"/>
  <rect width="1365" height="1188" fill="url(#heroGlow)"/>
  <g opacity="0.22">
    <path d="M70 175 C285 37 458 80 666 152 C878 226 1082 203 1315 43" class="line"/>
    <path d="M0 214 C218 36 392 64 620 142 C844 218 1044 227 1365 82" stroke="#ff5b90" stroke-width="3" fill="none" opacity="0.4"/>
    <path d="M0 310 C258 180 425 188 688 224 C950 260 1130 235 1365 139" stroke="#ff2d6f" stroke-width="1.2" fill="none" opacity="0.32"/>
  </g>

  <g class="ui" text-rendering="optimizeLegibility">
    <rect x="1" y="1" width="1363" height="388" rx="37" fill="rgba(255,45,111,.04)" stroke="rgba(255,45,111,.28)"/>
    <text x="66" y="98" font-size="50" font-weight="900" letter-spacing="-2.2" fill="#ffffff">Sharveesh <tspan fill="#ff5f93">M</tspan></text>
    <text x="66" y="134" font-size="17" font-weight="750" fill="#fff3f7">AI Engineer • Systems Builder • Full-Stack Developer</text>
    <text x="66" y="176" font-size="17" fill="#f5dce6">Building intelligent systems that <tspan fill="#ff2d6f" font-weight="800">think, adapt, and scale.</tspan></text>
    <text x="66" y="200" font-size="17" fill="#f5dce6">I design, ship and operate AI-driven platforms, agentic systems,</text>
    <text x="66" y="224" font-size="17" fill="#f5dce6">and scalable architectures that solve real-world problems.</text>

    <g filter="url(#glow)">
      <rect x="65" y="252" width="188" height="38" rx="19" fill="url(#pink)"/>
      <text x="84" y="276" fill="#fff" font-size="14" font-weight="850">Explore My Universe</text>
      <text x="220" y="276" fill="#fff" font-size="18">→</text>
    </g>
    <g>
      <rect x="265" y="252" width="88" height="38" rx="19" fill="rgba(255,255,255,.08)"/>
      <text x="284" y="276" fill="#fff" font-size="13" font-weight="800">Projects</text>
      <rect x="362" y="252" width="112" height="38" rx="19" fill="rgba(255,255,255,.08)"/>
      <text x="380" y="276" fill="#fff" font-size="13" font-weight="800">System Map</text>
      <rect x="484" y="252" width="86" height="38" rx="19" fill="rgba(255,255,255,.08)"/>
      <text x="505" y="276" fill="#fff" font-size="13" font-weight="800">Resume</text>
      <circle cx="599" cy="271" r="8" fill="#ff8db4"/>
      <path d="M596 267 L604 271 L596 275 Z" fill="#360917"/>
      <text x="615" y="276" fill="#f5dce6" font-size="13" font-weight="750">Demo Reel</text>
    </g>

    <g transform="translate(67 323)">
      <g>
        <text x="38" y="14" font-size="18" font-weight="900" fill="#fff">50K+</text>
        <text x="38" y="32" class="small">Lines of Code</text>
        <path d="M7 18 L19 6 M19 30 L31 18 M19 6 L19 30" stroke="#ff2d6f" stroke-width="2" fill="none"/>
      </g>
      <g transform="translate(138 0)">
        <text x="38" y="14" font-size="18" font-weight="900" fill="#fff">250+</text>
        <text x="38" y="32" class="small">Commits</text>
        <path d="M16 6 L29 19 L16 32 L3 19 Z" stroke="#ff2d6f" stroke-width="2" fill="none"/>
      </g>
      <g transform="translate(258 0)">
        <text x="38" y="14" font-size="18" font-weight="900" fill="#fff">25+</text>
        <text x="38" y="32" class="small">Repos</text>
        <rect x="9" y="9" width="18" height="20" rx="3" stroke="#ff2d6f" fill="none" stroke-width="2"/>
        <path d="M5 15 H31 M18 4 V34" stroke="#ff2d6f" stroke-width="2"/>
      </g>
      <g transform="translate(368 0)">
        <text x="38" y="14" font-size="18" font-weight="900" fill="#fff">10+</text>
        <text x="38" y="32" class="small">Collaborations</text>
        <circle cx="17" cy="12" r="5" stroke="#ff2d6f" fill="none" stroke-width="2"/>
        <path d="M7 31 C8 21 26 21 28 31" stroke="#ff2d6f" fill="none" stroke-width="2"/>
      </g>
      <g transform="translate(500 0)">
        <text x="38" y="14" font-size="18" font-weight="900" fill="#fff">2050+</text>
        <text x="38" y="32" class="small">Future Vision</text>
        <path d="M9 29 C21 20 25 12 24 5 C16 7 8 14 5 26 L15 22 L12 33 Z" stroke="#ff2d6f" fill="none" stroke-width="2"/>
      </g>
    </g>

    <g transform="translate(700 45)" filter="url(#softShadow)">
      <path d="M62 210 C110 132 232 112 365 132 C472 148 530 132 606 86" stroke="#ff2d6f" stroke-width="2" fill="none" opacity=".9"/>
      <path d="M39 221 C113 313 352 324 528 213" stroke="#ff2d6f" stroke-width="1.4" fill="none" opacity=".52"/>
      <ellipse cx="335" cy="206" rx="265" ry="82" stroke="#ff2d6f" fill="none" opacity=".26"/>
      <g transform="translate(270 24)">
        <polygon points="0,28 34,10 68,28 34,46" fill="#ff7aa8"/>
        <polygon points="0,28 34,46 34,140 0,121" fill="#c0134a"/>
        <polygon points="68,28 34,46 34,140 68,121" fill="#ff2d6f"/>
        <polygon points="0,121 34,140 68,121 34,102" fill="#63132e"/>
      </g>
      <g transform="translate(180 108) scale(.82)">
        <polygon points="0,28 34,10 68,28 34,46" fill="#ffb2cb"/>
        <polygon points="0,28 34,46 34,135 0,116" fill="#9b1240"/>
        <polygon points="68,28 34,46 34,135 68,116" fill="#ff2d6f"/>
      </g>
      <g transform="translate(397 82) scale(.72)">
        <polygon points="0,28 34,10 68,28 34,46" fill="#f9c8ff"/>
        <polygon points="0,28 34,46 34,130 0,111" fill="#6a236e"/>
        <polygon points="68,28 34,46 34,130 68,111" fill="#cf48d8"/>
      </g>
      <g transform="translate(480 228) scale(.68)">
        <polygon points="0,28 34,10 68,28 34,46" fill="#e7d8ff"/>
        <polygon points="0,28 34,46 34,103 0,84" fill="#3e3472"/>
        <polygon points="68,28 34,46 34,103 68,84" fill="#9676ff"/>
      </g>
      <g transform="translate(60 113)">
        <rect x="240" y="-84" width="143" height="34" rx="17" fill="rgba(255,45,111,.18)" stroke="rgba(255,122,168,.42)"/>
        <text x="272" y="-62" class="label">AI Systems</text>
        <rect x="-8" y="36" width="130" height="34" rx="17" fill="rgba(255,45,111,.18)" stroke="rgba(255,122,168,.42)"/>
        <text x="24" y="58" class="label">Cloud Native</text>
        <rect x="454" y="155" width="180" height="34" rx="17" fill="rgba(255,45,111,.18)" stroke="rgba(255,122,168,.42)"/>
        <text x="490" y="177" class="label">Product Engineering</text>
        <rect x="206" y="267" width="136" height="34" rx="17" fill="rgba(255,45,111,.18)" stroke="rgba(255,122,168,.42)"/>
        <text x="242" y="289" class="label">Innovation</text>
      </g>
    </g>

    <rect x="20" y="407" width="1292" height="294" rx="18" class="card"/>
    <text x="57" y="430" class="label">FEATURED PROJECTS</text>
    <text x="1150" y="430" fill="#ff2d6f" font-size="13" font-weight="800">View All Projects →</text>

    <g transform="translate(52 443)">
      <rect width="440" height="246" rx="16" fill="rgba(255,17,79,.11)" stroke="rgba(255,45,111,.58)"/>
      <text x="25" y="45" font-size="26" font-weight="900" fill="#fff">HELIOS</text>
      <text x="25" y="68" font-size="14" font-weight="800" fill="#fff0f6">AI Operating System / Multi-Agent Platform</text>
      <g transform="translate(25 88)">
        <rect width="66" height="22" rx="8" class="chip"/><text x="10" y="15" class="small" fill="#fff">LangGraph</text>
        <rect x="72" width="58" height="22" rx="8" class="chip"/><text x="82" y="15" class="small">FastAPI</text>
        <rect x="136" width="82" height="22" rx="8" class="chip"/><text x="146" y="15" class="small">WebSocket</text>
        <rect x="224" width="50" height="22" rx="8" class="chip"/><text x="234" y="15" class="small">FAISS</text>
        <rect x="280" width="58" height="22" rx="8" class="chip"/><text x="290" y="15" class="small">Gemini</text>
      </g>
      <g transform="translate(98 122)" opacity=".9">
        <ellipse cx="210" cy="75" rx="138" ry="46" stroke="#ff2d6f" fill="none"/>
        <ellipse cx="210" cy="75" rx="93" ry="31" stroke="#ff6d9d" fill="none"/>
        <ellipse cx="210" cy="75" rx="47" ry="16" stroke="#fff" fill="none" opacity=".85"/>
        <rect x="192" y="28" width="36" height="36" transform="rotate(45 210 46)" fill="#fff" opacity=".95"/>
        <circle cx="91" cy="76" r="6" fill="#ff2d6f" filter="url(#glow)"/>
        <circle cx="210" cy="122" r="6" fill="#fff" filter="url(#glow)"/>
        <circle cx="304" cy="55" r="5" fill="#ff2d6f"/>
      </g>
      <rect x="18" y="204" width="112" height="31" rx="15" fill="rgba(255,255,255,.06)" stroke="rgba(255,122,168,.42)"/>
      <text x="34" y="225" fill="#fff" font-size="14" font-weight="900">Deep Dive →</text>
    </g>

    <g transform="translate(503 443)">
      <rect width="388" height="246" rx="16" fill="rgba(255,17,79,.11)" stroke="rgba(255,45,111,.58)"/>
      <text x="25" y="45" font-size="26" font-weight="900" fill="#fff">MIDAS PAY</text>
      <text x="25" y="68" font-size="14" font-weight="800" fill="#fff0f6">FinTech / AI Transaction Intelligence</text>
      <g transform="translate(25 88)">
        <rect width="52" height="22" rx="8" class="chip"/><text x="10" y="15" class="small">Kafka</text>
        <rect x="58" width="84" height="22" rx="8" class="chip"/><text x="68" y="15" class="small">Spring Boot</text>
        <rect x="148" width="92" height="22" rx="8" class="chip"/><text x="158" y="15" class="small">PostgreSQL</text>
        <rect x="246" width="36" height="22" rx="8" class="chip"/><text x="256" y="15" class="small">ML</text>
      </g>
      <g transform="translate(30 136)">
        <path d="M0 84 C91 -7 186 78 327 2" stroke="#ff2d6f" fill="none" opacity=".72"/>
        <path d="M0 108 C108 32 190 91 330 42" stroke="#ff6d9d" fill="none" opacity=".35"/>
        <g fill="#ff2d6f" opacity=".85">
          <rect x="160" y="43" width="16" height="16" transform="rotate(45 168 51)"/>
          <rect x="202" y="63" width="18" height="18" transform="rotate(45 211 72)"/>
          <rect x="244" y="34" width="20" height="20" transform="rotate(45 254 44)"/>
          <rect x="296" y="4" width="15" height="15" transform="rotate(45 303 11)"/>
        </g>
      </g>
      <rect x="18" y="204" width="112" height="31" rx="15" fill="rgba(255,255,255,.06)" stroke="rgba(255,122,168,.42)"/>
      <text x="34" y="225" fill="#fff" font-size="14" font-weight="900">Deep Dive →</text>
    </g>

    <g transform="translate(902 443)">
      <rect width="384" height="246" rx="16" fill="rgba(255,255,255,.045)" stroke="rgba(255,122,168,.34)"/>
      <text x="25" y="45" font-size="26" font-weight="900" fill="#fff">Whole2</text>
      <text x="25" y="68" font-size="14" font-weight="800" fill="#fff0f6">Cross-Platform Marketplace</text>
      <g transform="translate(25 88)">
        <rect width="54" height="22" rx="8" class="chip"/><text x="10" y="15" class="small">Flutter</text>
        <rect x="60" width="72" height="22" rx="8" class="chip"/><text x="70" y="15" class="small">Firebase</text>
        <rect x="138" width="42" height="22" rx="8" class="chip"/><text x="148" y="15" class="small">Dart</text>
        <rect x="186" width="72" height="22" rx="8" class="chip"/><text x="196" y="15" class="small">Riverpod</text>
      </g>
      <g transform="translate(122 125)" opacity=".6">
        <rect x="70" y="10" width="170" height="76" rx="14" transform="rotate(-18 155 48)" fill="#2b1321" stroke="#ff2d6f"/>
        <rect x="17" y="70" width="144" height="66" rx="12" transform="rotate(-13 89 103)" fill="#1b1830" stroke="#765cff"/>
        <rect x="160" y="80" width="150" height="70" rx="12" transform="rotate(-22 235 115)" fill="#2b1321" stroke="#ff2d6f"/>
      </g>
      <rect x="18" y="204" width="112" height="31" rx="15" fill="rgba(255,255,255,.06)" stroke="rgba(255,122,168,.32)"/>
      <text x="34" y="225" fill="#fff" font-size="14" font-weight="900">Deep Dive →</text>
    </g>

    <rect x="20" y="715" width="287" height="174" rx="14" class="card"/>
    <text x="43" y="745" fill="#ff5f93" font-size="12" font-weight="800">NOW PLAYING</text>
    <text x="43" y="775" fill="#fff" font-size="16" font-weight="900">Code. Ship. Repeat.</text>
    <text x="43" y="797" class="small">Sharveesh M</text>
    <g transform="translate(184 748)" fill="#ff2d6f">
      <rect x="0" y="42" width="5" height="26"/><rect x="9" y="30" width="5" height="38"/><rect x="18" y="18" width="5" height="50"/><rect x="27" y="4" width="5" height="64"/><rect x="36" y="23" width="5" height="45"/><rect x="45" y="12" width="5" height="56"/><rect x="54" y="34" width="5" height="34"/><rect x="63" y="22" width="5" height="46"/><rect x="72" y="42" width="5" height="26"/><rect x="81" y="29" width="5" height="39"/>
    </g>
    <line x1="43" y1="817" x2="268" y2="817" stroke="#ff2d6f"/>
    <circle cx="143" cy="817" r="5" fill="#fff"/>
    <text x="43" y="836" class="small">1:34</text>
    <text x="259" y="836" class="small">3:47</text>
    <circle cx="164" cy="855" r="22" fill="url(#pink)" filter="url(#glow)"/>
    <rect x="156" y="846" width="5" height="18" rx="2" fill="#fff"/><rect x="168" y="846" width="5" height="18" rx="2" fill="#fff"/>
    <text x="51" y="862" fill="#ff5f93" font-size="18">⌘</text><text x="103" y="862" fill="#fff" font-size="22">‹</text><text x="213" y="862" fill="#fff" font-size="22">›</text><text x="262" y="862" fill="#ff5f93" font-size="17">↻</text>

    <rect x="318" y="715" width="647" height="174" rx="14" class="card"/>
    <text x="339" y="741" class="label">TECH STACK</text>
    <text x="498" y="741" fill="#fff" font-size="12" font-weight="850">AI / ML</text>
    <line x1="482" y1="752" x2="553" y2="752" stroke="#ff2d6f" stroke-width="3"/>
    <text x="574" y="741" class="small">Backend</text><text x="659" y="741" class="small">Frontend</text><text x="744" y="741" class="small">Databases</text><text x="837" y="741" class="small">DevOps</text><text x="905" y="741" class="small">Tools</text>
    <g transform="translate(340 769)">
      <g>
        <rect width="68" height="76" rx="16" fill="rgba(255,255,255,.045)"/><text x="23" y="31" font-size="24" fill="#fff">⌘</text><text x="13" y="58" class="small">LangGraph</text>
      </g>
      <g transform="translate(74 0)">
        <rect width="68" height="76" rx="16" fill="rgba(255,255,255,.045)"/><text x="23" y="31" font-size="24" fill="#fff">⌁</text><text x="12" y="58" class="small">LangChain</text>
      </g>
      <g transform="translate(148 0)">
        <rect width="68" height="76" rx="16" fill="rgba(255,255,255,.045)"/><text x="24" y="31" font-size="24" fill="#fff">♙</text><text x="17" y="58" class="small">Ollama</text>
      </g>
      <g transform="translate(222 0)">
        <rect width="68" height="76" rx="16" fill="rgba(255,255,255,.045)"/><text x="23" y="31" font-size="24" fill="#fff">✦</text><text x="16" y="58" class="small">Gemini</text>
      </g>
      <g transform="translate(296 0)">
        <rect width="68" height="76" rx="16" fill="rgba(255,255,255,.045)"/><text x="22" y="31" font-size="24" fill="#fff">◎</text><text x="16" y="58" class="small">OpenAI</text>
      </g>
      <g transform="translate(370 0)">
        <rect width="68" height="76" rx="16" fill="rgba(255,255,255,.045)" stroke="rgba(255,45,111,.45)"/><text x="22" y="31" font-size="24" fill="#fff">⌘</text><text x="20" y="58" class="small">FAISS</text>
      </g>
      <g transform="translate(444 0)">
        <rect width="68" height="76" rx="16" fill="rgba(255,255,255,.045)"/><text x="22" y="31" font-size="24" fill="#fff">∞</text><text x="12" y="58" class="small">ChromaDB</text>
      </g>
      <g transform="translate(518 0)">
        <rect width="68" height="76" rx="16" fill="rgba(255,255,255,.045)"/><text x="23" y="31" font-size="24" fill="#fff">⌬</text><text x="15" y="58" class="small">VectorDB</text>
      </g>
    </g>

    <rect x="977" y="715" width="334" height="174" rx="14" class="card"/>
    <text x="998" y="741" class="label">SYSTEM HEALTH</text>
    <circle cx="1057" cy="810" r="51" fill="none" stroke="rgba(255,255,255,.08)" stroke-width="14"/>
    <path d="M1057 759 A51 51 0 1 1 1011 833" fill="none" stroke="url(#pink)" stroke-width="14" stroke-linecap="round" filter="url(#glow)"/>
    <text x="1025" y="812" font-size="34" font-weight="900" fill="#fff">100%</text>
    <text x="1033" y="832" class="small">Operational</text>
    <text x="1130" y="765" class="small">Code Quality</text><text x="1280" y="765" fill="#c9ff8a" font-size="12" font-weight="900">A+</text>
    <text x="1130" y="798" class="small">Performance</text><text x="1278" y="798" fill="#c9ff8a" font-size="12" font-weight="900">98%</text>
    <text x="1130" y="831" class="small">Reliability</text><text x="1267" y="831" fill="#c9ff8a" font-size="12" font-weight="900">99.9%</text>
    <text x="1130" y="864" class="small">Innovation</text><text x="1273" y="864" fill="#c9ff8a" font-size="12" font-weight="900">MAX</text>

    <rect x="20" y="902" width="598" height="196" rx="14" class="card"/>
    <text x="40" y="930" class="label">JOURNEY TIMELINE</text>
    <path d="M43 998 C175 987 274 982 392 978 C482 975 542 950 592 926" stroke="#ff2d6f" stroke-width="3" fill="none"/>
    <g>
      <circle cx="82" cy="993" r="8" fill="#ff2d6f" filter="url(#glow)"/><text x="64" y="973" fill="#ff2d6f" font-size="13">2025</text><text x="66" y="1030" fill="#fff" font-size="14" font-weight="900">Rablo</text><text x="44" y="1052" class="small">Flutter Dev Intern</text>
      <circle cx="220" cy="984" r="8" fill="#ff7aa8" filter="url(#glow)"/><text x="204" y="962" fill="#ff7aa8" font-size="13">2025</text><text x="198" y="1030" fill="#fff" font-size="14" font-weight="900">Itomata</text><text x="171" y="1052" class="small">AI Engineer Intern</text>
      <circle cx="382" cy="977" r="9" fill="#fff" stroke="#ff2d6f" stroke-width="4" filter="url(#glow)"/><text x="366" y="954" fill="#fff" font-size="13">2026</text><text x="349" y="1030" fill="#fff" font-size="14" font-weight="900">Now</text><text x="319" y="1052" class="small">Building the Future</text>
      <circle cx="530" cy="960" r="8" fill="#ff2d6f" filter="url(#glow)"/><text x="519" y="936" fill="#fff" font-size="13">Next</text><text x="488" y="1030" fill="#fff" font-size="14" font-weight="900">OpenAI &amp; Beyond</text><text x="486" y="1052" class="small">Impact at scale</text>
    </g>

    <rect x="629" y="902" width="382" height="196" rx="14" class="card"/>
    <text x="649" y="930" class="label">CONTRIBUTION ACTIVITY</text>
    <g transform="translate(670 944)">
      <text x="-35" y="12" class="small">Mon</text><text x="-35" y="49" class="small">Wed</text><text x="-35" y="86" class="small">Fri</text>
      <g fill="#ff2d6f">
        <rect x="0" y="0" width="13" height="13" rx="4" opacity=".18"/><rect x="18" y="0" width="13" height="13" rx="4" opacity=".18"/><rect x="36" y="0" width="13" height="13" rx="4" opacity=".22"/><rect x="54" y="0" width="13" height="13" rx="4" opacity=".24"/><rect x="72" y="0" width="13" height="13" rx="4" opacity=".2"/><rect x="90" y="0" width="13" height="13" rx="4" opacity=".25"/><rect x="108" y="0" width="13" height="13" rx="4" opacity=".3"/><rect x="126" y="0" width="13" height="13" rx="4" opacity=".34"/><rect x="144" y="0" width="13" height="13" rx="4" opacity=".38"/><rect x="162" y="0" width="13" height="13" rx="4" opacity=".45"/><rect x="180" y="0" width="13" height="13" rx="4" opacity=".56"/><rect x="198" y="0" width="13" height="13" rx="4" opacity=".72"/><rect x="216" y="0" width="13" height="13" rx="4" opacity=".94"/><rect x="234" y="0" width="13" height="13" rx="4" fill="#fff"/><rect x="252" y="0" width="13" height="13" rx="4" opacity=".68"/>
        <rect x="0" y="19" width="13" height="13" rx="4" opacity=".16"/><rect x="18" y="19" width="13" height="13" rx="4" opacity=".2"/><rect x="36" y="19" width="13" height="13" rx="4" opacity=".24"/><rect x="54" y="19" width="13" height="13" rx="4" opacity=".32"/><rect x="72" y="19" width="13" height="13" rx="4" opacity=".28"/><rect x="90" y="19" width="13" height="13" rx="4" opacity=".22"/><rect x="108" y="19" width="13" height="13" rx="4" opacity=".3"/><rect x="126" y="19" width="13" height="13" rx="4" opacity=".45"/><rect x="144" y="19" width="13" height="13" rx="4" opacity=".48"/><rect x="162" y="19" width="13" height="13" rx="4" opacity=".5"/><rect x="180" y="19" width="13" height="13" rx="4" opacity=".62"/><rect x="198" y="19" width="13" height="13" rx="4" opacity=".86"/><rect x="216" y="19" width="13" height="13" rx="4" opacity=".98"/><rect x="234" y="19" width="13" height="13" rx="4" fill="#fff"/><rect x="252" y="19" width="13" height="13" rx="4" opacity=".78"/>
        <rect x="0" y="38" width="13" height="13" rx="4" opacity=".12"/><rect x="18" y="38" width="13" height="13" rx="4" opacity=".14"/><rect x="36" y="38" width="13" height="13" rx="4" opacity=".22"/><rect x="54" y="38" width="13" height="13" rx="4" opacity=".25"/><rect x="72" y="38" width="13" height="13" rx="4" opacity=".38"/><rect x="90" y="38" width="13" height="13" rx="4" opacity=".4"/><rect x="108" y="38" width="13" height="13" rx="4" opacity=".45"/><rect x="126" y="38" width="13" height="13" rx="4" opacity=".58"/><rect x="144" y="38" width="13" height="13" rx="4" opacity=".62"/><rect x="162" y="38" width="13" height="13" rx="4" opacity=".6"/><rect x="180" y="38" width="13" height="13" rx="4" opacity=".72"/><rect x="198" y="38" width="13" height="13" rx="4" opacity=".92"/><rect x="216" y="38" width="13" height="13" rx="4" fill="#ff2d6f"/><rect x="234" y="38" width="13" height="13" rx="4" opacity=".86"/><rect x="252" y="38" width="13" height="13" rx="4" opacity=".58"/>
        <rect x="0" y="57" width="13" height="13" rx="4" opacity=".2"/><rect x="18" y="57" width="13" height="13" rx="4" opacity=".24"/><rect x="36" y="57" width="13" height="13" rx="4" opacity=".32"/><rect x="54" y="57" width="13" height="13" rx="4" opacity=".28"/><rect x="72" y="57" width="13" height="13" rx="4" opacity=".5"/><rect x="90" y="57" width="13" height="13" rx="4" opacity=".58"/><rect x="108" y="57" width="13" height="13" rx="4" opacity=".62"/><rect x="126" y="57" width="13" height="13" rx="4" opacity=".7"/><rect x="144" y="57" width="13" height="13" rx="4" opacity=".65"/><rect x="162" y="57" width="13" height="13" rx="4" opacity=".76"/><rect x="180" y="57" width="13" height="13" rx="4" opacity=".82"/><rect x="198" y="57" width="13" height="13" rx="4" opacity=".96"/><rect x="216" y="57" width="13" height="13" rx="4" fill="#fff"/><rect x="234" y="57" width="13" height="13" rx="4" opacity=".9"/><rect x="252" y="57" width="13" height="13" rx="4" opacity=".52"/>
        <rect x="0" y="76" width="13" height="13" rx="4" opacity=".14"/><rect x="18" y="76" width="13" height="13" rx="4" opacity=".18"/><rect x="36" y="76" width="13" height="13" rx="4" opacity=".2"/><rect x="54" y="76" width="13" height="13" rx="4" opacity=".22"/><rect x="72" y="76" width="13" height="13" rx="4" opacity=".3"/><rect x="90" y="76" width="13" height="13" rx="4" opacity=".42"/><rect x="108" y="76" width="13" height="13" rx="4" opacity=".5"/><rect x="126" y="76" width="13" height="13" rx="4" opacity=".54"/><rect x="144" y="76" width="13" height="13" rx="4" opacity=".62"/><rect x="162" y="76" width="13" height="13" rx="4" opacity=".7"/><rect x="180" y="76" width="13" height="13" rx="4" opacity=".75"/><rect x="198" y="76" width="13" height="13" rx="4" opacity=".82"/><rect x="216" y="76" width="13" height="13" rx="4" opacity=".9"/><rect x="234" y="76" width="13" height="13" rx="4" opacity=".7"/><rect x="252" y="76" width="13" height="13" rx="4" opacity=".42"/>
      </g>
      <text x="2" y="123" class="small">Jan</text><text x="58" y="123" class="small">Mar</text><text x="116" y="123" class="small">Jun</text><text x="173" y="123" class="small">Sep</text><text x="228" y="123" class="small">Dec</text>
      <text x="89" y="154" class="small">Less</text><rect x="128" y="143" width="11" height="11" rx="3" fill="#ff2d6f" opacity=".25"/><rect x="144" y="143" width="11" height="11" rx="3" fill="#ff2d6f" opacity=".5"/><rect x="160" y="143" width="11" height="11" rx="3" fill="#ff2d6f" opacity=".8"/><rect x="176" y="143" width="11" height="11" rx="3" fill="#fff"/><text x="193" y="154" class="small">More</text>
    </g>

    <rect x="1021" y="902" width="290" height="196" rx="14" class="card"/>
    <text x="1041" y="930" class="label">QUICK LINKS</text>
    <g class="small" font-size="13">
      <text x="1064" y="965" fill="#fff" font-weight="850">GitHub</text><text x="1186" y="965">@SharveeshM1</text><text x="1286" y="965">↗</text>
      <text x="1064" y="995" fill="#fff" font-weight="850">LinkedIn</text><text x="1186" y="995">Sharveesh M</text><text x="1286" y="995">↗</text>
      <text x="1064" y="1025" fill="#fff" font-weight="850">LeetCode</text><text x="1186" y="1025">Sharveesh M</text><text x="1286" y="1025">↗</text>
      <text x="1064" y="1055" fill="#fff" font-weight="850">Email</text><text x="1186" y="1055">sharveesh1@gmail.com</text><text x="1286" y="1055">↗</text>
      <text x="1064" y="1085" fill="#fff" font-weight="850">Portfolio</text><text x="1186" y="1085">Live profile</text><text x="1286" y="1085">↗</text>
    </g>

    <rect x="20" y="1112" width="1292" height="56" rx="14" fill="rgba(255,45,111,.22)" stroke="rgba(255,122,168,.28)"/>
    <text x="365" y="1150" fill="#ff5f93" font-size="44" font-weight="900">“</text>
    <text x="420" y="1148" fill="#fff" font-size="20" font-weight="850">I don’t just write code. I architect systems that evolve.</text>
    <g opacity=".26" fill="#ff2d6f">
      <rect x="1001" y="1142" width="2" height="10"/><rect x="1008" y="1132" width="2" height="20"/><rect x="1015" y="1124" width="2" height="28"/><rect x="1022" y="1135" width="2" height="17"/><rect x="1029" y="1119" width="2" height="33"/><rect x="1036" y="1128" width="2" height="24"/><rect x="1043" y="1138" width="2" height="14"/><rect x="1050" y="1122" width="2" height="30"/><rect x="1057" y="1130" width="2" height="22"/><rect x="1064" y="1140" width="2" height="12"/><rect x="1071" y="1128" width="2" height="24"/>
    </g>
  </g>
</svg>
