<svg xmlns="http://www.w3.org/2000/svg" width="720" height="132" viewBox="0 0 720 132" role="img" aria-labelledby="title">
  <title id="title">HELIOS command bar segment</title>
  <defs>
    <linearGradient id="edge" x1="0" y1="12" x2="708" y2="120" gradientUnits="userSpaceOnUse"><stop stop-color="#a78bfa"/><stop offset=".48" stop-color="#a78bfa"/><stop offset="1" stop-color="#00d9ff"/></linearGradient>
    <linearGradient id="surface" x1="0" y1="12" x2="0" y2="120" gradientUnits="userSpaceOnUse"><stop stop-color="#f8fafc" stop-opacity=".12"/><stop offset=".52" stop-color="#0a0e27" stop-opacity=".79"/><stop offset="1" stop-color="#0a0e27"/></linearGradient>
    <radialGradient id="glow" cx="54%" cy="0%" r="84%"><stop stop-color="#a78bfa" stop-opacity=".3"/><stop offset=".46" stop-color="#a78bfa" stop-opacity=".1"/><stop offset="1" stop-color="#0a0e27" stop-opacity="0"/></radialGradient>
    <style>.label{font:900 54px "General Sans","Satoshi",-apple-system,BlinkMacSystemFont,"Segoe UI",Arial,sans-serif;fill:#f8fafc}.cmd{font:850 20px "General Sans","Satoshi",monospace;letter-spacing:6px;fill:#a78bfa}</style>
  </defs>
  <path d="M0 12h676c17.7 0 32 14.3 32 32v44c0 17.7-14.3 32-32 32H0Z" fill="url(#surface)" stroke="url(#edge)" stroke-width="2"/>
  <path d="M0 14H676c16.6 0 30 13.4 30 30v22H0Z" fill="url(#glow)"/>
  <circle cx="96" cy="66" r="36" fill="#0a0e27" stroke="url(#edge)" stroke-width="3"/>
  <path d="M96 41L119 54V79L96 92L73 79V54Z" fill="none" stroke="#00d9ff" stroke-width="5"/>
  <path d="M84 78L96 55L111 72" fill="none" stroke="#f8fafc" stroke-width="5" stroke-linecap="round" stroke-linejoin="round"/>
  <text x="158" y="48" class="cmd">&gt; LAUNCH</text>
  <text x="158" y="91" class="label">HELIOS</text>
</svg>
