<svg xmlns="http://www.w3.org/2000/svg" width="3600" height="1900" viewBox="0 0 3600 1900" role="img" aria-labelledby="title desc">
  <title id="title">Premium technology constellation around HELIOS</title>
  <desc id="desc">A sharp constellation of AI, knowledge, backend, frontend, and infrastructure technologies arranged around a central HELIOS symbol.</desc>
  <defs>
    <linearGradient id="bg" x1="0" y1="0" x2="3600" y2="1900" gradientUnits="userSpaceOnUse">
      <stop stop-color="#020617"/><stop offset=".55" stop-color="#030712"/><stop offset="1" stop-color="#0F172A"/>
    </linearGradient>
    <radialGradient id="field" cx="50%" cy="50%" r="62%">
      <stop stop-color="#1D4ED8" stop-opacity=".22"/><stop offset=".36" stop-color="#7C3AED" stop-opacity=".12"/><stop offset="1" stop-color="#020617" stop-opacity="0"/>
    </radialGradient>
    <linearGradient id="cyanPurple" x1="860" y1="420" x2="2800" y2="1500" gradientUnits="userSpaceOnUse">
      <stop stop-color="#67E8F9"/><stop offset=".5" stop-color="#8B5CF6"/><stop offset="1" stop-color="#2563EB"/>
    </linearGradient>
    <linearGradient id="glass" x1="-80" y1="-80" x2="80" y2="80" gradientUnits="userSpaceOnUse">
      <stop stop-color="#F8FAFC" stop-opacity=".13"/><stop offset="1" stop-color="#0F172A" stop-opacity=".55"/>
    </linearGradient>
    <style>
      .display{font-family:"Clash Display","General Sans","Satoshi",-apple-system,BlinkMacSystemFont,"Segoe UI",Arial,sans-serif;font-weight:900;letter-spacing:0;fill:#F8FAFC}
      .body{font-family:"General Sans","Satoshi",-apple-system,BlinkMacSystemFont,"Segoe UI",Arial,sans-serif;font-weight:760;fill:#CBD5E1}
      .mono{font-family:"General Sans","Satoshi","SFMono-Regular",Menlo,Consolas,monospace;font-weight:850;letter-spacing:10px;fill:#67E8F9}
      .label{font-family:"General Sans","Satoshi",-apple-system,BlinkMacSystemFont,"Segoe UI",Arial,sans-serif;font-size:32px;font-weight:850;fill:#F8FAFC}
      .layer{font-family:"General Sans","Satoshi",monospace;font-size:17px;font-weight:850;letter-spacing:5px;fill:#94A3B8}
      @keyframes trace{to{stroke-dashoffset:-1000}}@keyframes spin{to{transform:rotate(360deg)}}
      .trace{animation:trace 20s linear infinite}#orbitSystem{animation:spin 120s linear infinite;transform-origin:1800px 1040px}
      @media (prefers-reduced-motion:reduce){*{animation:none!important}}
    </style>
  </defs>
  <rect width="3600" height="1900" fill="url(#bg)"/>
  <rect width="3600" height="1900" fill="url(#field)"/>
  <g opacity=".22" stroke="#334155"><path d="M0 475H3600M0 950H3600M0 1425H3600M720 0V1900M1440 0V1900M2160 0V1900M2880 0V1900"/></g>
  <text x="140" y="150" class="mono" font-size="24">TECHNOLOGY CONSTELLATION</text>
  <text x="136" y="292" class="display" font-size="110">Systems orbit the core.</text>
  <text x="142" y="360" class="body" font-size="34">Production AI, retrieval, backend, frontend, and infrastructure tools arranged as one engineering field.</text>
  <g id="orbitSystem" fill="none">
    <ellipse cx="1800" cy="1040" rx="1260" ry="390" stroke="#67E8F9" stroke-opacity=".22" stroke-width="3"/>
    <ellipse cx="1800" cy="1040" rx="960" ry="300" stroke="#8B5CF6" stroke-opacity=".34" stroke-width="5" stroke-dasharray="54 46" class="trace" transform="rotate(-12 1800 1040)"/>
    <ellipse cx="1800" cy="1040" rx="1540" ry="500" stroke="#64748B" stroke-opacity=".28" stroke-width="2" transform="rotate(10 1800 1040)"/>
    <ellipse cx="1800" cy="1040" rx="700" ry="220" stroke="#38BDF8" stroke-opacity=".24" stroke-width="2" transform="rotate(32 1800 1040)"/>
  </g>
  <g stroke="#38BDF8" stroke-opacity=".28" stroke-width="2" fill="none">
    <path d="M520 1010C900 620 1280 1420 1800 1040C2300 680 2620 1280 3160 880"/>
    <path d="M620 620C1000 860 1340 660 1800 1040C2220 1390 2660 1080 3160 1320"/>
  </g>
  <g transform="translate(1800 1040)">
    <circle r="270" fill="#020617" stroke="url(#cyanPurple)" stroke-width="6"/>
    <circle r="218" fill="none" stroke="#334155" stroke-width="2"/>
    <path d="M0 -170L147 -85V85L0 170L-147 85V-85Z" fill="url(#glass)" stroke="#67E8F9" stroke-opacity=".6" stroke-width="4"/>
    <path d="M-70 32L-4 -86L88 -30L118 -112M-4 -86L24 44L108 82M24 44L-50 126" fill="none" stroke="#F8FAFC" stroke-width="12" stroke-linecap="round" stroke-linejoin="round"/>
    <text y="330" text-anchor="middle" class="mono" font-size="22">HELIOS CORE</text>
  </g>
  <g text-anchor="middle">
    <g transform="translate(500 700)"><circle r="74" fill="#07111F" stroke="#67E8F9" stroke-width="4"/><path d="M-34 -26H34L52 0L34 26H-34L-52 0Z" fill="none" stroke="#67E8F9" stroke-width="7"/><text y="122" class="label">OpenAI</text><text y="158" class="layer">AI</text></g>
    <g transform="translate(820 510)"><circle r="74" fill="#07111F" stroke="#8B5CF6" stroke-width="4"/><path d="M0 -48L18 -14L54 0L18 14L0 50L-18 14L-54 0L-18 -14Z" fill="#8B5CF6"/><text y="122" class="label">Gemini</text><text y="158" class="layer">AI</text></g>
    <g transform="translate(1180 430)"><circle r="74" fill="#07111F" stroke="#C084FC" stroke-width="4"/><text y="13" class="label">C</text><path d="M-38 26C-12 50 18 50 44 18" fill="none" stroke="#C084FC" stroke-width="7" stroke-linecap="round"/><text y="122" class="label">Claude</text><text y="158" class="layer">AI</text></g>
    <g transform="translate(2280 440)"><circle r="74" fill="#07111F" stroke="#67E8F9" stroke-width="4"/><text y="13" class="label">LC</text><text y="122" class="label">LangChain</text><text y="158" class="layer">AI</text></g>
    <g transform="translate(2640 560)"><circle r="74" fill="#07111F" stroke="#8B5CF6" stroke-width="4"/><path d="M-40 -10H22M-10 -42L44 -10L-10 24M-34 36H34" fill="none" stroke="#8B5CF6" stroke-width="7" stroke-linecap="round"/><text y="122" class="label">LangGraph</text><text y="158" class="layer">AI</text></g>
    <g transform="translate(3020 770)"><circle r="70" fill="#07111F" stroke="#F59E0B" stroke-width="4"/><text y="12" class="label">HF</text><text y="118" class="label">HuggingFace</text><text y="154" class="layer">AI</text></g>
    <g transform="translate(420 1080)"><circle r="66" fill="#07111F" stroke="#38BDF8" stroke-width="4"/><path d="M-42 0C-16 -34 18 -34 42 0C16 34 -18 34 -42 0Z" fill="none" stroke="#38BDF8" stroke-width="7"/><circle r="9" fill="#F8FAFC"/><text y="114" class="label">Embeddings</text><text y="150" class="layer">KNOWLEDGE</text></g>
    <g transform="translate(700 1360)"><circle r="66" fill="#07111F" stroke="#38BDF8" stroke-width="4"/><text y="12" class="label">F</text><path d="M-34 -30H36M-34 0H22M-34 30H10" stroke="#38BDF8" stroke-width="7" stroke-linecap="round"/><text y="114" class="label">FAISS</text><text y="150" class="layer">KNOWLEDGE</text></g>
    <g transform="translate(1120 1530)"><circle r="66" fill="#07111F" stroke="#8B5CF6" stroke-width="4"/><circle r="34" fill="none" stroke="#8B5CF6" stroke-width="7"/><path d="M-22 -22L22 22M22 -22L-22 22" stroke="#8B5CF6" stroke-width="6"/><text y="114" class="label">Qdrant</text><text y="150" class="layer">KNOWLEDGE</text></g>
    <g transform="translate(560 920)"><circle r="66" fill="#07111F" stroke="#67E8F9" stroke-width="4"/><path d="M-36 -26L0 -44L36 -26V26L0 44L-36 26Z" fill="none" stroke="#67E8F9" stroke-width="7"/><text y="114" class="label">Pinecone</text><text y="150" class="layer">KNOWLEDGE</text></g>
    <g transform="translate(3040 1040)"><circle r="66" fill="#07111F" stroke="#86EFAC" stroke-width="4"/><path d="M-38 32V-10L0 -36L38 -10V32Z" fill="none" stroke="#86EFAC" stroke-width="7"/><text y="114" class="label">Spring Boot</text><text y="150" class="layer">BACKEND</text></g>
    <g transform="translate(2780 1340)"><circle r="66" fill="#07111F" stroke="#38BDF8" stroke-width="4"/><path d="M0 -42L42 34H-42Z" fill="none" stroke="#38BDF8" stroke-width="7"/><text y="114" class="label">FastAPI</text><text y="150" class="layer">BACKEND</text></g>
    <g transform="translate(3200 1250)"><circle r="66" fill="#07111F" stroke="#F87171" stroke-width="4"/><text y="13" class="label">J</text><text y="114" class="label">Java</text><text y="150" class="layer">BACKEND</text></g>
    <g transform="translate(2380 1600)"><circle r="66" fill="#07111F" stroke="#FACC15" stroke-width="4"/><text y="13" class="label">Py</text><text y="114" class="label">Python</text><text y="150" class="layer">BACKEND</text></g>
    <g transform="translate(3180 570)"><circle r="66" fill="#07111F" stroke="#93C5FD" stroke-width="4"/><ellipse rx="36" ry="13" cy="-26" fill="none" stroke="#93C5FD" stroke-width="7"/><path d="M-36 -26V26C-36 44 36 44 36 26V-26" fill="none" stroke="#93C5FD" stroke-width="7"/><text y="114" class="label">PostgreSQL</text><text y="150" class="layer">BACKEND</text></g>
    <g transform="translate(3240 1510)"><circle r="66" fill="#07111F" stroke="#FB7185" stroke-width="4"/><path d="M-36 -10L0 -28L36 -10L0 10Z M-36 10L0 28L36 10" fill="none" stroke="#FB7185" stroke-width="7"/><text y="114" class="label">Redis</text><text y="150" class="layer">BACKEND</text></g>
    <g transform="translate(1450 1620)"><circle r="62" fill="#07111F" stroke="#38BDF8" stroke-width="4"/><path d="M-32 18L0 -40L34 18L0 40Z" fill="none" stroke="#38BDF8" stroke-width="7"/><text y="110" class="label">Flutter</text><text y="146" class="layer">FRONTEND</text></g>
    <g transform="translate(1760 430)"><circle r="62" fill="#07111F" stroke="#F8FAFC" stroke-width="4"/><text y="13" class="label">N</text><text y="110" class="label">Next.js</text><text y="146" class="layer">FRONTEND</text></g>
    <g transform="translate(2060 1640)"><circle r="62" fill="#07111F" stroke="#F59E0B" stroke-width="4"/><path d="M-30 36L-14 -40L12 -12L34 36Z" fill="none" stroke="#F59E0B" stroke-width="7"/><text y="110" class="label">Firebase</text><text y="146" class="layer">FRONTEND</text></g>
    <g transform="translate(250 1450)"><circle r="62" fill="#07111F" stroke="#60A5FA" stroke-width="4"/><path d="M-36 22H36M-26 22V-18M0 22V-38M26 22V-6" stroke="#60A5FA" stroke-width="8" stroke-linecap="round"/><text y="110" class="label">Docker</text><text y="146" class="layer">INFRA</text></g>
    <g transform="translate(3420 980)"><circle r="62" fill="#07111F" stroke="#F8FAFC" stroke-width="4"/><text y="13" class="label">Lx</text><text y="110" class="label">Linux</text><text y="146" class="layer">INFRA</text></g>
    <g transform="translate(2860 1660)"><circle r="62" fill="#07111F" stroke="#8B5CF6" stroke-width="4"/><path d="M-34 -8H-8L4 22H34M4 22L22 -16" fill="none" stroke="#8B5CF6" stroke-width="7" stroke-linecap="round"/><text y="110" class="label">GitHub Actions</text><text y="146" class="layer">INFRA</text></g>
  </g>
</svg>
